<svg width="14" height="14" viewBox="0 0 14 14" fill="none" xmlns="http://www.w3.org/2000/svg">
<path d="M10 0.883301C8.84 0.883301 7.72667 1.4233 7 2.27663C6.27333 1.4233 5.16 0.883301 4 0.883301C1.94667 0.883301 0.333332 2.49663 0.333332 4.54997C0.333332 7.06997 2.6 9.1233 6.03333 12.2433L7 13.1166L7.96667 12.2366C11.4 9.1233 13.6667 7.06997 13.6667 4.54997C13.6667 2.49663 12.0533 0.883301 10 0.883301ZM7.06667 11.25L7 11.3166L6.93333 11.25C3.76 8.37663 1.66667 6.47663 1.66667 4.54997C1.66667 3.21663 2.66667 2.21663 4 2.21663C5.02667 2.21663 6.02667 2.87663 6.38 3.78997H7.62667C7.97333 2.87663 8.97333 2.21663 10 2.21663C11.3333 2.21663 12.3333 3.21663 12.3333 4.54997C12.3333 6.47663 10.24 8.37663 7.06667 11.25Z" fill="white"/>
</svg>
