<svg width="16" height="15" viewBox="0 0 16 15" fill="none" xmlns="http://www.w3.org/2000/svg">
<path d="M11.1292 9.37919H10.4708L10.2375 9.15419C11.0542 8.20419 11.5458 6.97086 11.5458 5.62919C11.5458 2.63752 9.12084 0.212524 6.12917 0.212524C3.1375 0.212524 0.712502 2.63752 0.712502 5.62919C0.712502 8.62086 3.1375 11.0459 6.12917 11.0459C7.47084 11.0459 8.70417 10.5542 9.65417 9.73753L9.87917 9.97086V10.6292L14.0458 14.7875L15.2875 13.5459L11.1292 9.37919ZM6.12917 9.37919C4.05417 9.37919 2.37917 7.70419 2.37917 5.62919C2.37917 3.55419 4.05417 1.87919 6.12917 1.87919C8.20417 1.87919 9.87917 3.55419 9.87917 5.62919C9.87917 7.70419 8.20417 9.37919 6.12917 9.37919Z" fill="#7E7E7E"/>
</svg>
